<svg width="100%" height="100%" viewBox="0 0 1800 1100" xmlns="http://www.w3.org/2000/svg">
  <defs>
    <!-- Dezenter metallischer Verlauf -->
    <linearGradient id="metallic" x1="0%" y1="0%" x2="100%" y2="0%">
      <stop offset="0%" stop-color="#9c9c9c"></stop>
      <stop offset="50%" stop-color="#d0d0d0"></stop>
      <stop offset="100%" stop-color="#efefef"></stop>
    </linearGradient>
  </defs>

  <!-- Aschgrauer Hintergrund -->
  <rect width="100%" height="100%" fill="#a9a9a9"></rect>

  <g stroke="url(#metallic)" fill="none">

    <!-- 50 wellige Linien, stark diagonal, komplett über das Bild -->
    <!-- Welligkeit hoch, Chaos hoch, Thickness random 0.7px–6px -->

    <!-- Automatisch erzeugte chaotisch-wellige Linien -->
    <!-- Jede Zeile: Start weit unten links → welliger Verlauf → Ende weit oben rechts -->

    <!-- Mehr Linien zwischen y=1200 bis y=200 gestartet -->

    <!-- 1–10 -->
    <path d="M -600 1200 C 100 900, 900 750, 1800 100" stroke-width="5.8" opacity="0.38"></path>
    <path d="M -650 1180 C 0 840, 800 700, 1750 80" stroke-width="1.0" opacity="0.66"></path>
    <path d="M -700 1160 C 200 880, 1100 720, 2050 150" stroke-width="3.7" opacity="0.52"></path>
    <path d="M -620 1140 C 150 820, 950 650, 1900 50" stroke-width="0.9" opacity="0.70"></path>
    <path d="M -760 1120 C 260 860, 1250 690, 2250 100" stroke-width="5.3" opacity="0.40"></path>
    <path d="M -800 1100 C 180 740, 1100 600, 2100 20" stroke-width="1.4" opacity="0.60"></path>
    <path d="M -850 1080 C 350 820, 1450 680, 2500 120" stroke-width="4.4" opacity="0.48"></path>
    <path d="M -900 1060 C 280 720, 1300 580, 2300 -20" stroke-width="1.0" opacity="0.72"></path>
    <path d="M -950 1040 C 450 800, 1600 650, 2700 100" stroke-width="3.2" opacity="0.55"></path>
    <path d="M -1000 1020 C 380 700, 1400 560, 2500 -40" stroke-width="0.8" opacity="0.75"></path>

    <!-- 11–20 -->
    <path d="M -1050 1000 C 500 780, 1700 640, 3000 30" stroke-width="5.9" opacity="0.38"></path>
    <path d="M -1100 980 C 420 680, 1500 550, 2700 -60" stroke-width="1.3" opacity="0.65"></path>
    <path d="M -1150 960 C 600 760, 1900 620, 3300 40" stroke-width="3.8" opacity="0.50"></path>
    <path d="M -1200 940 C 520 650, 1700 520, 3000 -90" stroke-width="0.7" opacity="0.76"></path>
    <path d="M -1250 920 C 700 730, 2000 600, 3500 10" stroke-width="5.3" opacity="0.41"></path>
    <path d="M -1300 900 C 630 600, 1850 480, 3300 -120" stroke-width="1.4" opacity="0.68"></path>
    <path d="M -1350 880 C 800 690, 2200 560, 3800 20" stroke-width="3.3" opacity="0.57"></path>
    <path d="M -1400 860 C 720 580, 2000 460, 3500 -150" stroke-width="0.9" opacity="0.74"></path>
    <path d="M -1450 840 C 880 660, 2400 540, 4000 -20" stroke-width="4.9" opacity="0.44"></path>
    <path d="M -1500 820 C 820 540, 2200 440, 3600 -180" stroke-width="2.0" opacity="0.59"></path>

    <!-- 21–30 -->
    <path d="M -1550 800 C 1000 620, 2600 520, 4300 -40" stroke-width="6.0" opacity="0.37"></path>
    <path d="M -1600 780 C 900 500, 2400 420, 4000 -200" stroke-width="1.1" opacity="0.71"></path>
    <path d="M -1650 760 C 1100 580, 2800 500, 4600 -30" stroke-width="3.5" opacity="0.51"></path>
    <path d="M -1700 740 C 1000 460, 2600 400, 4300 -220" stroke-width="0.6" opacity="0.78"></path>
    <path d="M -1750 720 C 1200 560, 3100 480, 5000 -60" stroke-width="5.7" opacity="0.38"></path>
    <path d="M -1800 700 C 1100 450, 2900 380, 4700 -240" stroke-width="1.5" opacity="0.67"></path>
    <path d="M -1850 680 C 1300 540, 3300 460, 5400 -80" stroke-width="3.1" opacity="0.56"></path>
    <path d="M -1900 660 C 1200 420, 3100 360, 5100 -260" stroke-width="0.9" opacity="0.75"></path>
    <path d="M -1950 640 C 1400 510, 3600 440, 5800 -50" stroke-width="4.1" opacity="0.47"></path>
    <path d="M -2000 620 C 1300 400, 3400 340, 5500 -300" stroke-width="1.3" opacity="0.68"></path>

    <!-- 31–40 -->
    <path d="M -2050 600 C 1500 480, 3900 420, 6200 -80" stroke-width="5.2" opacity="0.40"></path>
    <path d="M -2100 580 C 1400 360, 3600 320, 5800 -320" stroke-width="0.8" opacity="0.76"></path>
    <path d="M -2150 560 C 1600 450, 4100 400, 6500 -60" stroke-width="3.6" opacity="0.54"></path>
    <path d="M -2200 540 C 1500 330, 3800 300, 6100 -350" stroke-width="1.2" opacity="0.67"></path>
    <path d="M -2250 520 C 1700 420, 4300 380, 6800 -100" stroke-width="5.9" opacity="0.38"></path>
    <path d="M -2300 500 C 1600 310, 4000 280, 6400 -380" stroke-width="1.0" opacity="0.74"></path>
    <path d="M -2350 480 C 1800 400, 4500 360, 7100 -120" stroke-width="3.2" opacity="0.57"></path>
    <path d="M -2400 460 C 1700 290, 4200 260, 6700 -420" stroke-width="0.7" opacity="0.78"></path>
    <path d="M -2450 440 C 1900 370, 4700 340, 7400 -150" stroke-width="4.8" opacity="0.47"></path>
    <path d="M -2500 420 C 1800 260, 4400 240, 7000 -450" stroke-width="1.4" opacity="0.72"></path>

  </g>
</svg>
